<svg width="90" height="90" viewBox="0 0 90 90" fill="none" xmlns="http://www.w3.org/2000/svg">
<g clip-path="url(#clip0_25_87)">
<path d="M22.5493 44.9998C31.5714 -11.3986 58.0736 -17.7701 69.0692 44.9998" stroke="#E5DFD9" stroke-width="1.5"/>
<path d="M69.0486 45H22.5631C20.0305 51.5027 14.8019 75.7418 45.6833 74.8796C78.1169 73.9742 70.274 49.6918 69.0486 45Z" stroke="#E5DFD9" stroke-width="1.5"/>
<path d="M20.8959 59.7339C20.1878 64.755 18.4863 75.8672 18.617 77.1843C18.8621 88.0496 26.1331 88.2965 35.5282 89.0373C44.3515 89.7331 59.6288 88.741 60.9359 88.5435C68.7788 87.885 72.6186 85.7448 72.6186 77.1843C72.2014 71.9985 72.038 70.8462 70.4041 59.7339" stroke="#E5DFD9" stroke-width="1.5"/>
<path d="M23.8416 45.0002C34.02 -13.6798 57.87 -11.8798 67.777 45.0002" stroke="#E5DFD9" stroke-width="1.5"/>
<path d="M57.2239 83.7002H65.8387" stroke="#E5DFD9" stroke-width="1.5"/>
<path d="M42.2256 74.8933V76.3671C42.2256 77.4717 43.121 78.3671 44.2256 78.3671H46.9957C48.1003 78.3671 48.9957 77.4717 48.9957 76.3671V74.7104" stroke="#E5DFD9" stroke-width="1.5"/>
</g>
<defs>
<clipPath id="clip0_25_87">
<rect width="90" height="90" fill="white"/>
</clipPath>
</defs>
</svg>
