<svg width="49" height="35" viewBox="0 0 49 35" fill="none" xmlns="http://www.w3.org/2000/svg">
<path d="M42.3637 6.27875C32.4203 5.17133 16.4414 5.26909 7.34471 6.27874C3.68164 6.6853 3.68164 7.23336 2.98499 9.43377C0.963501 18.394 0.458128 23.9469 0.458128 29.1212C0.458128 33.8926 4.26773 34.0109 7.34471 34.3345C12.1458 34.8393 38.2348 34.2954 42.7831 34.043C47.3315 33.7906 48.4686 32.4612 48.4686 29.1212C48.4686 25.0648 47.2515 12.5358 46.3199 9.43377C45.7006 7.37173 45.5873 6.63776 42.3637 6.27875Z" stroke="#E5DFD9" stroke-width="0.9"/>
<path d="M18.3339 5.46588V1.92675C18.3828 1.4386 18.8321 0.462289 20.2387 0.462289C21.6453 0.462289 26.5881 0.462289 28.8836 0.462289C29.4697 0.42161 30.6419 0.657551 30.6419 1.92675C30.6419 3.19596 30.6419 4.81501 30.6419 5.46588" stroke="#E5DFD9" stroke-width="0.9"/>
<path d="M20.9713 10.3264H28.2975" stroke="#E5DFD9" stroke-width="0.9"/>
<path d="M11.0078 22.8459L11.0078 34.3344" stroke="#E5DFD9" stroke-width="0.9"/>
<path d="M37.675 22.8459L37.675 34.3344" stroke="#E5DFD9" stroke-width="0.9"/>
<path d="M32.5282 25.6444C32.5282 30.0303 28.9918 33.5818 24.6345 33.5818C20.2771 33.5818 16.7407 30.0303 16.7407 25.6444C16.7407 21.2585 20.2771 17.7071 24.6345 17.7071C28.9918 17.7071 32.5282 21.2585 32.5282 25.6444Z" stroke="#E5DFD9" stroke-width="0.9"/>
</svg>
