<svg width="96" height="96" viewBox="0 0 96 96" fill="none" xmlns="http://www.w3.org/2000/svg">
<path d="M20.1271 36.8593C38.5141 -6.07153 56.8257 -9.83741 75.8155 37.0853" stroke="#E5DFD9" stroke-width="1.5"/>
<path d="M24.1964 38.667C39.9458 -2.15502 55.9968 -2.53164 71.5956 37.9891" stroke="#E5DFD9" stroke-width="1.5"/>
<path d="M41.2269 85.6649H54.5166" stroke="#E5DFD9" stroke-width="1.5"/>
<path d="M24.088 39.734C24.088 41.2385 22.8649 42.4613 21.3522 42.4613C19.8395 42.4613 18.6164 41.2385 18.6164 39.734C18.6164 38.2295 19.8395 37.0068 21.3522 37.0068C22.8649 37.0068 24.088 38.2295 24.088 39.734Z" stroke="#E5DFD9" stroke-width="1.5"/>
<path d="M51.9311 46.1987C51.9311 46.9488 51.3226 47.5576 50.5711 47.5576C49.8196 47.5576 49.2111 46.9488 49.2111 46.1987C49.2111 45.4485 49.8196 44.8398 50.5711 44.8398C51.3226 44.8398 51.9311 45.4485 51.9311 46.1987Z" stroke="#E5DFD9" stroke-width="1.5"/>
<path d="M46.6561 46.1987C46.6561 46.9488 46.0476 47.5576 45.2961 47.5576C44.5447 47.5576 43.9362 46.9488 43.9362 46.1987C43.9362 45.4485 44.5447 44.8398 45.2961 44.8398C46.0476 44.8398 46.6561 45.4485 46.6561 46.1987Z" stroke="#E5DFD9" stroke-width="1.5"/>
<path d="M54.4561 43.6377C54.609 48.8469 54.8724 60.3757 54.7027 64.8171" stroke="#E5DFD9" stroke-width="1.5"/>
<path d="M28.9856 38.2148C29.1971 41.891 29.5901 50.0261 29.4705 53.157" stroke="#E5DFD9" stroke-width="1.5"/>
<path d="M35.4663 37.1606C35.6483 41.6091 35.976 51.4538 35.8312 55.2449" stroke="#E5DFD9" stroke-width="1.5"/>
<path d="M41.6455 41.6796C41.8201 46.3213 42.1315 56.5937 41.9804 60.5499" stroke="#E5DFD9" stroke-width="1.5"/>
<path d="M50.5711 48.0063C50.9479 49.7135 51.6713 54.1221 51.5507 58.0988C51.4 63.0697 50.119 65.9318 51.5507 72.861" stroke="#E5DFD9" stroke-width="1.5"/>
<path d="M45.2961 48.0063C45.6964 49.5583 46.465 53.5661 46.3369 57.1813C46.1768 61.7003 44.8158 64.3022 46.3369 70.6015" stroke="#E5DFD9" stroke-width="1.5"/>
<path d="M76.9883 39.734C76.9883 41.2385 75.7651 42.4613 74.2525 42.4613C72.7398 42.4613 71.5167 41.2385 71.5167 39.734C71.5167 38.2295 72.7398 37.0068 74.2525 37.0068C75.7651 37.0068 76.9883 38.2295 76.9883 39.734Z" stroke="#E5DFD9" stroke-width="1.5"/>
<path d="M14.4 75.6764C14.4 68.446 22.934 46.7546 26.6265 36.2855C40.3226 31.3146 52.5304 31.5405 69.4856 36.2855C70.3295 38.1534 77.9506 62.1946 81.1658 74.5467C82.8237 83.2835 75.6475 88.3571 69.4856 90.3633C59.5385 93.602 36.0273 93.4513 25.9296 90.3633C15.5304 87.1831 14.4 79.2962 14.4 75.6764Z" stroke="#E5DFD9" stroke-width="1.5"/>
<path d="M69.2732 36.134L60.4113 41.6867C52.1536 46.274 53.8115 43.2613 57.3264 39.8526L59.8029 37.513C61.2593 36.1846 62.8713 34.113 57.6686 36.4538L49.4408 39.8526C42.3573 43.1106 39.1276 42.5081 43.9197 39.8259L47.8583 37.2508C49.4503 36.1564 51.139 33.7664 46.5815 35.0999C42.024 36.4333 39.7132 37.0894 39.1276 37.2508C37.3524 37.6108 34.1954 37.9995 35.769 36.6743L38.7582 34.7168C38.0052 34.7757 36.0013 35.1335 34.009 36.0934C31.5185 37.2933 27.6345 39.3811 29.2815 37.619C29.5249 37.0254 29.2304 36.1194 26.1046 37.2444" stroke="#E5DFD9" stroke-width="1.5"/>
<path d="M27.286 36.031L26.5324 36.7089L26.3817 37.1608L26.9846 36.8595H28.7178L29.3206 37.1608L28.9438 38.0646L29.5467 38.2905L33.1638 36.4076L37.233 34.9012L37.5345 35.3531L35.4245 37.1608L35.952 37.5373L39.5691 37.1608L47.1047 34.9012H49.3654V35.805L48.7626 36.6335L46.5019 38.0646L42.0559 41.1526L41.6791 41.7551L42.0559 42.207L45.8237 41.3785L54.8664 37.6127L59.84 35.5038H60.9703L61.121 36.1063L58.6343 38.5165L55.3939 41.7551L54.2636 43.7134L54.8664 44.09L57.1271 43.3368L61.4978 41.1526L66.0192 38.2905L69.1088 36.257L68.506 35.8804L65.1149 34.9766L58.6343 33.8468L54.2636 33.1689L48.5365 32.5664H44.3919L40.7748 32.943L37.0823 33.4702L33.4652 34.2987L29.6974 35.2778L27.286 36.031Z" fill="#E5DFD9"/>
</svg>
