<svg width="12" height="17" viewBox="0 0 12 17" fill="none" xmlns="http://www.w3.org/2000/svg">
<path d="M11.55 1.8H8.40001C8.88751 2.4 9.22501 3.11249 9.45001 3.89999H11.55C11.6625 3.89999 11.775 3.97499 11.85 4.04999C11.925 4.12499 12 4.23749 12 4.34999V5.24999C12 5.39999 11.925 5.51249 11.85 5.58749C11.775 5.66249 11.6625 5.69999 11.55 5.69999H9.6C9.52501 7.23748 9.00001 8.47498 8.02501 9.41248C7.05001 10.35 5.81251 10.8 4.31252 10.8H3.82502L9.8625 16.0125C10.0125 16.1625 10.0875 16.3125 10.0125 16.5C9.9375 16.725 9.7875 16.8 9.56251 16.8H7.27501C7.16251 16.8 7.05001 16.7625 6.97501 16.6875L0.150026 10.8C0.0375258 10.725 2.58404e-05 10.6125 2.58404e-05 10.4625V9.14998C2.58404e-05 9.03748 0.0375258 8.92498 0.112526 8.84998C0.187525 8.77498 0.300025 8.69998 0.450025 8.69998H3.93752C4.87502 8.69998 5.62501 8.43748 6.22501 7.91248C6.78751 7.38748 7.12501 6.63749 7.20001 5.69999H0.450025C0.300025 5.69999 0.187525 5.66249 0.112526 5.58749C0.0375258 5.51249 2.58404e-05 5.39999 2.58404e-05 5.24999V4.34999C2.58404e-05 4.23749 0.0375258 4.12499 0.112526 4.04999C0.187525 3.97499 0.300025 3.89999 0.450025 3.89999H6.93751C6.71251 3.33749 6.33751 2.88749 5.81251 2.58749C5.28751 2.2875 4.68752 2.1 3.97502 2.1H0.450025C0.300025 2.1 0.187525 2.0625 0.112526 1.9875C0.0375258 1.9125 2.58404e-05 1.8 2.58404e-05 1.65V0.45C2.58404e-05 0.3375 0.0375258 0.225 0.112526 0.15C0.187525 0.0750004 0.300025 5.98158e-07 0.450025 5.98158e-07H11.55C11.6625 5.98158e-07 11.775 0.0750004 11.85 0.15C11.925 0.225 12 0.3375 12 0.45V1.35C12 1.5 11.925 1.6125 11.85 1.6875C11.775 1.7625 11.6625 1.8 11.55 1.8Z" fill="#E5DFD9"/>
</svg>
