<svg width="44" height="65" viewBox="0 0 44 65" fill="none" xmlns="http://www.w3.org/2000/svg">
<path d="M11.3191 8.86452V2.91875C11.4015 2.09865 12.1589 0.458436 14.5301 0.458436C16.9012 0.458436 25.2331 0.458436 29.1027 0.458436C30.0907 0.390094 32.0666 0.786479 32.0666 2.91875C32.0666 5.05103 32.0666 7.77105 32.0666 8.86452" stroke="#E5DFD9" stroke-width="0.9"/>
<path d="M17.741 25.4435H25.8918M5.88526 8.62566H37.7475C39.9704 8.62566 40.7114 9.60687 41.2054 11.595C41.6349 13.3239 42.5227 45.6602 43.1813 61.5792C43.2637 62.569 43.6753 64.5486 40.4644 64.5486C38.8836 64.5486 15.518 64.5486 3.16833 64.5486C0.451401 64.5486 0.451401 63.7568 0.451401 61.5792C0.451401 59.4017 1.60404 27.3491 2.18036 11.595C2.18036 10.3492 2.67435 8.62566 5.88526 8.62566Z" stroke="#E5DFD9" stroke-width="0.9"/>
<path d="M6.37925 64.5486L7.36722 36.0922C7.36722 34.1041 8.55279 33.3703 10.3311 33.3703C12.1095 33.3703 26.2211 33.3703 33.0546 33.3703C34.1249 33.3703 36.2655 33.9147 36.2655 36.0922C36.2655 38.2698 37.0888 55.9704 37.5005 64.5486" stroke="#E5DFD9" stroke-width="0.9"/>
<path d="M13.542 33.6178V64.3012" stroke="#E5DFD9" stroke-width="0.9"/>
<path d="M30.5847 33.3703V64.3011" stroke="#E5DFD9" stroke-width="0.9"/>
<path d="M1.93338 19.5133C2.2627 20.3381 2.42737 21.9877 5.88528 21.9877C8.25642 21.9877 27.4561 21.9877 36.7595 21.9877C40.9584 21.9877 41.4524 20.247 41.6994 19.2573" stroke="#E5DFD9" stroke-width="0.9"/>
</svg>
