<svg width="39" height="43" viewBox="0 0 39 43" fill="none" xmlns="http://www.w3.org/2000/svg">
<path d="M23.9779 8.71926H30.5174V29.4275C30.5174 30.9261 29.9724 32.2204 28.8825 33.3103C27.7926 34.4002 26.5665 34.877 25.0679 34.877H5.44953C3.95091 34.877 2.65664 34.4002 1.56673 33.3103C0.476828 32.2204 -6.69436e-06 30.9261 -6.69436e-06 29.4275V8.71926H6.53943C6.53943 7.15251 6.88003 5.72201 7.69746 4.35963C8.44677 2.99724 9.46856 1.97546 10.8309 1.15803C12.1933 0.408715 13.6238 0 15.2587 0C16.8254 0 18.2559 0.408715 19.6183 1.15803C20.9807 1.97546 22.0025 2.99724 22.8199 4.35963C23.5692 5.72201 23.9779 7.15251 23.9779 8.71926ZM15.2587 2.17981C13.4195 2.17981 11.8527 2.86101 10.6266 4.08715C9.33232 5.38142 8.71925 6.94816 8.71925 8.71926H21.7981C21.7981 6.94816 21.1169 5.38142 19.8908 4.08715C18.5965 2.86101 17.0298 2.17981 15.2587 2.17981ZM28.3376 29.4275V10.8991H23.9779V14.1688C23.9779 14.5094 23.8417 14.7819 23.6373 14.9862C23.433 15.1906 23.1605 15.2587 22.888 15.2587C22.5474 15.2587 22.275 15.1906 22.0706 14.9862C21.8663 14.7819 21.7981 14.5094 21.7981 14.1688V10.8991H8.71925V14.1688C8.71925 14.5094 8.58301 14.7819 8.37865 14.9862C8.1743 15.1906 7.90182 15.2587 7.62934 15.2587C7.28875 15.2587 7.01627 15.1906 6.81191 14.9862C6.60755 14.7819 6.53943 14.5094 6.53943 14.1688V10.8991H2.17981V29.4275C2.17981 30.3812 2.45228 31.1305 3.13348 31.7435C3.74655 32.4247 4.49586 32.6972 5.44953 32.6972H25.0679C25.9534 32.6972 26.7027 32.4247 27.3839 31.7435C27.997 31.1305 28.3376 30.3812 28.3376 29.4275Z" fill="#E5DFD9"/>
<ellipse cx="28.1591" cy="32.7764" rx="9.99385" ry="10.2236" fill="#141414"/>
<path d="M33.2626 31.3621C33.3194 31.3621 33.3478 31.3905 33.4045 31.4473C33.4613 31.5041 33.4897 31.5324 33.4897 31.5892V32.4975C33.4897 32.5542 33.4613 32.611 33.4045 32.6678C33.3478 32.7245 33.3194 32.7245 33.2626 32.7245H28.7213V37.2658C28.7213 37.3226 28.693 37.3793 28.6362 37.4361C28.5794 37.4929 28.551 37.4929 28.4943 37.4929H27.586C27.5292 37.4929 27.4725 37.4929 27.4157 37.4361C27.359 37.3793 27.359 37.3226 27.359 37.2658V32.7245H22.8177C22.7609 32.7245 22.7041 32.7245 22.6474 32.6678C22.5906 32.611 22.5906 32.5542 22.5906 32.4975V31.5892C22.5906 31.5324 22.5906 31.5041 22.6474 31.4473C22.7041 31.3905 22.7609 31.3621 22.8177 31.3621H27.359V26.8209C27.359 26.7641 27.359 26.7357 27.4157 26.679C27.4725 26.6222 27.5292 26.5938 27.586 26.5938H28.4943C28.551 26.5938 28.5794 26.6222 28.6362 26.679C28.693 26.7357 28.7213 26.7641 28.7213 26.8209V31.3621H33.2626Z" fill="#E5DFD9"/>
</svg>
