<svg width="90" height="90" viewBox="0 0 90 90" fill="none" xmlns="http://www.w3.org/2000/svg">
<g clip-path="url(#clip0_25_64)">
<path d="M86.4001 29.6201H3.29809L3.07349 84.1527C3.07349 86.7228 3.29809 87.8403 5.88099 87.8403H84.2664C86.4001 87.8403 86.3252 85.3819 86.4001 84.1527V29.6201Z" stroke="#E5DFD9" stroke-width="1.5"/>
<path d="M82.5817 32.3018H7.09562L6.8916 81.9149C6.8916 84.2532 7.09562 85.2699 9.44181 85.2699H80.6436C82.5817 85.2699 82.5137 83.0332 82.5817 81.9149V32.3018Z" stroke="#E5DFD9" stroke-width="1.5"/>
<rect x="28.5294" y="73.2808" width="32.19" height="4.75781" stroke="#E5DFD9" stroke-width="1.5"/>
<path d="M38.7848 75.6597H50.5763" stroke="#E5DFD9" stroke-width="1.5"/>
<path d="M8.64103 20.8804C2.95303 21.9604 1.53105 27.7204 3.60103 31.3204C2.98132 25.8304 6.12103 22.3204 9.09103 22.3204L8.64103 20.8804Z" fill="#E5DFD9"/>
</g>
<defs>
<clipPath id="clip0_25_64">
<rect width="90" height="90" fill="white"/>
</clipPath>
</defs>
</svg>
