<svg width="90" height="90" viewBox="0 0 90 90" fill="none" xmlns="http://www.w3.org/2000/svg">
<path d="M86.4001 51.8789C61.7116 39.9039 17.0911 46.0044 4.86011 51.8789C6.67211 60.2388 17.5441 85.3184 20.7151 85.3184C27.0571 87.3519 65.3356 87.1259 71.9041 85.3184C74.8033 85.3184 84.3616 61.5944 86.4001 51.8789Z" stroke="#E5DFD9" stroke-width="1.5"/>
<path d="M38.88 51.6597H52.2" stroke="#E5DFD9" stroke-width="1.5"/>
<path d="M44.7102 27.2683C44.7105 27.2682 44.7095 27.2712 44.7065 27.2776C44.7086 27.2716 44.71 27.2684 44.7102 27.2683ZM44.4567 27.6084C44.4546 27.6107 44.4526 27.613 44.4505 27.6152C44.1455 27.9491 43.6381 28.3923 42.9405 28.9292C41.5542 29.9959 39.5261 31.3501 37.1602 32.8188C32.4331 35.7534 26.4264 39.1033 21.6749 41.4592C17.11 43.7226 13.0593 46.3752 10.0127 48.3704C9.84199 48.4822 9.67444 48.5919 9.51013 48.6994C8.19248 49.5613 7.10459 50.2641 6.26251 50.7387C6.63329 50.3938 7.08607 49.9998 7.61325 49.5633C9.39485 48.0882 11.9469 46.1929 14.8301 44.1861C20.6009 40.1695 27.6296 35.7537 32.3547 33.4109C34.5961 32.2995 36.47 31.3386 38.0406 30.5331C39.8448 29.6079 41.2489 28.8879 42.3504 28.3807C43.3714 27.9107 44.034 27.6723 44.4567 27.6084Z" stroke="#E5DFD9" stroke-width="1.5"/>
</svg>
