<svg width="96" height="96" viewBox="0 0 96 96" fill="none" xmlns="http://www.w3.org/2000/svg">
<path d="M1.728 64.3198C1.91534 66.1469 3.86374 70.0752 9.03447 70.0752C14.2052 70.0752 63.6457 70.0752 87.7196 70.0752C89.593 70.1665 93.1151 68.9241 94.464 64.3198" stroke="#E5DFD9" stroke-width="1.5"/>
<path d="M53.376 46.4638H42.816" stroke="#E5DFD9" stroke-width="1.5"/>
<path d="M34.752 39.744C37.8553 28.2938 38.7017 27.456 41.5229 27.456H56.4754C60.143 27.456 59.5788 28.2938 62.4 39.744" stroke="#E5DFD9" stroke-width="1.5"/>
<path d="M94.464 39.744H1.728V89.0354C1.728 92.6407 4.8192 95.232 7.9104 95.232H88.8436C93.3399 95.232 94.464 90.5376 94.464 88.1904V39.744Z" stroke="#E5DFD9" stroke-width="1.5"/>
<rect x="26.898" y="85.6498" width="4.06801" height="14.436" transform="rotate(-180 26.898 85.6498)" stroke="#E5DFD9" stroke-width="1.5"/>
<rect x="70.638" y="59.31" width="4.068" height="9.636" stroke="#E5DFD9" stroke-width="1.5"/>
<rect x="22.83" y="59.31" width="4.068" height="9.636" stroke="#E5DFD9" stroke-width="1.5"/>
<rect x="74.706" y="85.6498" width="4.06801" height="14.436" transform="rotate(-180 74.706 85.6498)" stroke="#E5DFD9" stroke-width="1.5"/>
</svg>
