<svg width="26" height="35" viewBox="0 0 26 35" fill="none" xmlns="http://www.w3.org/2000/svg">
<path d="M22.75 9.67688e-07C23.6302 9.67688e-07 24.375 0.338543 25.0521 0.947917C25.6615 1.625 26 2.36979 26 3.25V34.6667L13 27.0833L4.83844e-06 34.6667V3.25C4.83844e-06 2.36979 0.270838 1.625 0.947921 0.947917C1.5573 0.338543 2.30209 9.67688e-07 3.25 9.67688e-07H22.75ZM23.8333 30.875V3.25C23.8333 2.97917 23.6979 2.70833 23.4948 2.50521C23.2917 2.30208 23.0208 2.16667 22.75 2.16667H3.25C2.91146 2.16667 2.64063 2.30208 2.4375 2.50521C2.23438 2.70833 2.16667 2.97917 2.16667 3.25V30.875L13 24.5781L23.8333 30.875Z" fill="#0C0C0C"/>
</svg>
