<svg width="161" height="24" viewBox="0 0 161 24" fill="none" xmlns="http://www.w3.org/2000/svg">
<path d="M20.8945 20.1953C20.9648 20.2656 21 20.3711 21 20.4766C21 20.6172 20.9648 20.7227 20.8945 20.793L20.543 21.1094C20.4375 21.2148 20.332 21.25 20.2266 21.25C20.0859 21.25 20.0156 21.2148 19.9453 21.1094L15.4102 16.5742C15.3047 16.5039 15.2695 16.4336 15.2695 16.293V15.9414C14.6016 16.5742 13.8281 17.0312 12.9844 17.3828C12.1406 17.7344 11.2266 17.875 10.3125 17.875C8.97656 17.875 7.74609 17.5586 6.62109 16.8906C5.49609 16.2578 4.61719 15.3789 3.98438 14.2539C3.31641 13.1289 3 11.8984 3 10.5625C3 9.22656 3.31641 8.03125 3.98438 6.90625C4.61719 5.78125 5.49609 4.90234 6.62109 4.23438C7.74609 3.60156 8.97656 3.25 10.3125 3.25C11.6484 3.25 12.8438 3.60156 13.9688 4.23438C15.0938 4.90234 15.9727 5.78125 16.6406 6.90625C17.2734 8.03125 17.625 9.22656 17.625 10.5625C17.625 11.5117 17.4492 12.4258 17.0977 13.2695C16.7461 14.1133 16.2891 14.8867 15.6914 15.5195H16.043C16.1484 15.5195 16.2539 15.5898 16.3594 15.6602L20.8945 20.1953ZM10.3125 16.75C11.4375 16.75 12.457 16.5039 13.4062 15.9414C14.3555 15.3789 15.0938 14.6406 15.6562 13.6914C16.2188 12.7422 16.5 11.6875 16.5 10.5625C16.5 9.4375 16.2188 8.41797 15.6562 7.46875C15.0938 6.51953 14.3555 5.78125 13.4062 5.21875C12.457 4.65625 11.4375 4.375 10.3125 4.375C9.1875 4.375 8.13281 4.65625 7.18359 5.21875C6.23438 5.78125 5.49609 6.51953 4.93359 7.46875C4.37109 8.41797 4.125 9.4375 4.125 10.5625C4.125 11.6875 4.37109 12.7422 4.93359 13.6914C5.49609 14.6406 6.23438 15.3789 7.18359 15.9414C8.13281 16.5039 9.1875 16.75 10.3125 16.75Z" fill="#E5DFD9"/>
<path d="M56 4.375C55.2969 4.375 54.6289 4.55078 54.0312 4.90234C53.3984 5.25391 52.9414 5.74609 52.5898 6.34375C52.2383 6.97656 52.0625 7.60938 52.0625 8.3125C52.0625 9.01562 52.2383 9.68359 52.5898 10.2812C52.9414 10.9141 53.3984 11.3711 54.0312 11.7227C54.6289 12.0742 55.2969 12.25 56 12.25C56.7031 12.25 57.3359 12.0742 57.9688 11.7227C58.5664 11.3711 59.0586 10.9141 59.4102 10.2812C59.7617 9.68359 59.9375 9.01562 59.9375 8.3125C59.9375 7.60938 59.7617 6.97656 59.4102 6.34375C59.0586 5.74609 58.5664 5.25391 57.9688 4.90234C57.3359 4.55078 56.7031 4.375 56 4.375ZM60.5 15.625C59.7617 15.625 59.1641 15.6602 58.7422 15.7305C58.4609 15.8008 58.1445 15.8711 57.8281 15.9414C57.5117 16.0469 57.2656 16.1172 57.125 16.1172C56.8086 16.1875 56.4219 16.1875 56 16.1875C55.543 16.1875 55.1562 16.1875 54.875 16.1172C54.6992 16.1172 54.4883 16.0469 54.207 15.9414C53.8555 15.8711 53.5391 15.8008 53.2578 15.7305C52.8008 15.6602 52.2031 15.625 51.5 15.625C50.5508 15.625 49.7422 15.9766 49.1094 16.6094C48.4414 17.2773 48.125 18.0859 48.125 19V20.125H63.875V19C63.875 18.0859 63.5234 17.2773 62.8906 16.6094C62.2227 15.9766 61.4141 15.625 60.5 15.625ZM56 3.25C56.9141 3.25 57.7578 3.49609 58.5312 3.95312C59.3047 4.41016 59.9023 5.00781 60.3594 5.78125C60.8164 6.55469 61.0625 7.39844 61.0625 8.3125C61.0625 9.22656 60.8164 10.0703 60.3594 10.8438C59.9023 11.6172 59.3047 12.25 58.5312 12.707C57.7578 13.1641 56.9141 13.375 56 13.375C55.0859 13.375 54.2422 13.1641 53.4688 12.707C52.6953 12.25 52.0625 11.6172 51.6055 10.8438C51.1484 10.0703 50.9375 9.22656 50.9375 8.3125C50.9375 7.39844 51.1484 6.55469 51.6055 5.78125C52.0625 5.00781 52.6953 4.41016 53.4688 3.95312C54.2422 3.49609 55.0859 3.25 56 3.25ZM60.5 14.5C61.3086 14.5 62.0469 14.7109 62.75 15.0977C63.4531 15.5195 63.9805 16.0469 64.4023 16.75C64.7891 17.4531 65 18.1914 65 19V20.125C65 20.4414 64.8594 20.7227 64.6484 20.9336C64.4375 21.1445 64.1562 21.25 63.875 21.25H48.125C47.8086 21.25 47.5273 21.1445 47.3164 20.9336C47.1055 20.7227 47 20.4414 47 20.125V19C47 18.1914 47.1758 17.4531 47.5977 16.75C47.9844 16.0469 48.5117 15.5195 49.2148 15.0977C49.918 14.7109 50.6562 14.5 51.4648 14.5C52.2734 14.5 52.9414 14.5352 53.4336 14.6055C53.7148 14.6758 54.0312 14.7461 54.3828 14.8164C54.6289 14.9219 54.8398 14.9922 55.0156 14.9922C55.2617 15.0625 55.5781 15.0625 56 15.0625C56.3867 15.0625 56.7031 15.0625 56.9844 14.9922C57.125 14.9922 57.3359 14.9219 57.6172 14.8164C57.9688 14.7461 58.2852 14.6758 58.5664 14.6055C59.0586 14.5352 59.6914 14.5 60.5 14.5Z" fill="#E5DFD9"/>
<path d="M109.062 3.25C109.52 3.25 109.906 3.42578 110.258 3.74219C110.574 4.09375 110.75 4.48047 110.75 4.9375V21.25L104 17.3125L97.25 21.25V4.9375C97.25 4.48047 97.3906 4.09375 97.7422 3.74219C98.0586 3.42578 98.4453 3.25 98.9375 3.25H109.062ZM109.625 19.2812V4.9375C109.625 4.79688 109.555 4.65625 109.449 4.55078C109.344 4.44531 109.203 4.375 109.062 4.375H98.9375C98.7617 4.375 98.6211 4.44531 98.5156 4.55078C98.4102 4.65625 98.375 4.79688 98.375 4.9375V19.2812L104 16.0117L109.625 19.2812Z" fill="#E5DFD9"/>
<path d="M153.5 7.75H156.875V18.4375C156.875 19.2109 156.594 19.8789 156.031 20.4414C155.469 21.0039 154.836 21.25 154.062 21.25H143.938C143.164 21.25 142.496 21.0039 141.934 20.4414C141.371 19.8789 141.125 19.2109 141.125 18.4375V7.75H144.5C144.5 6.94141 144.676 6.20312 145.098 5.5C145.484 4.79688 146.012 4.26953 146.715 3.84766C147.418 3.46094 148.156 3.25 149 3.25C149.809 3.25 150.547 3.46094 151.25 3.84766C151.953 4.26953 152.48 4.79688 152.902 5.5C153.289 6.20312 153.5 6.94141 153.5 7.75ZM149 4.375C148.051 4.375 147.242 4.72656 146.609 5.35938C145.941 6.02734 145.625 6.83594 145.625 7.75H152.375C152.375 6.83594 152.023 6.02734 151.391 5.35938C150.723 4.72656 149.914 4.375 149 4.375ZM155.75 18.4375V8.875H153.5V10.5625C153.5 10.7383 153.43 10.8789 153.324 10.9844C153.219 11.0898 153.078 11.125 152.938 11.125C152.762 11.125 152.621 11.0898 152.516 10.9844C152.41 10.8789 152.375 10.7383 152.375 10.5625V8.875H145.625V10.5625C145.625 10.7383 145.555 10.8789 145.449 10.9844C145.344 11.0898 145.203 11.125 145.062 11.125C144.887 11.125 144.746 11.0898 144.641 10.9844C144.535 10.8789 144.5 10.7383 144.5 10.5625V8.875H142.25V18.4375C142.25 18.9297 142.391 19.3164 142.742 19.6328C143.059 19.9844 143.445 20.125 143.938 20.125H154.062C154.52 20.125 154.906 19.9844 155.258 19.6328C155.574 19.3164 155.75 18.9297 155.75 18.4375Z" fill="#E5DFD9"/>
</svg>
